<?xml version="1.0" standalone="no"?>
<!DOCTYPE svg PUBLIC "-//W3C//DTD SVG 20010904//EN"
 "http://www.w3.org/TR/2001/REC-SVG-20010904/DTD/svg10.dtd">
<svg version="1.0" xmlns="http://www.w3.org/2000/svg"
 width="512.000000pt" height="512.000000pt" viewBox="0 0 512.000000 512.000000"
 preserveAspectRatio="xMidYMid meet">

<g transform="translate(0.000000,512.000000) scale(0.100000,-0.100000)"
fill="#000000" stroke="none">
<path d="M2060 4783 c-46 -186 -86 -345 -91 -355 -5 -9 -32 -24 -61 -34 -29
-9 -97 -36 -150 -59 l-97 -43 -304 183 -305 183 -295 -297 -295 -296 183 -303
183 -303 -43 -97 c-23 -53 -50 -121 -61 -150 -10 -30 -25 -57 -34 -62 -8 -4
-167 -45 -352 -90 l-338 -82 0 -418 0 -418 338 -82 c185 -45 344 -86 354 -91
9 -5 24 -32 34 -61 9 -29 36 -97 59 -150 l43 -97 -183 -303 -183 -303 295
-296 295 -297 305 183 304 183 97 -43 c53 -23 121 -50 150 -59 29 -10 56 -25
61 -34 5 -10 45 -169 91 -355 l82 -337 418 0 418 0 82 337 c46 186 86 345 91
354 5 9 20 20 35 23 14 4 82 31 150 60 l124 53 304 -182 304 -183 295 297 295
296 -183 303 -183 303 43 97 c23 53 50 121 59 150 10 29 25 56 34 61 10 4 169
45 355 90 l337 83 0 418 0 418 -337 83 c-186 45 -345 86 -355 90 -9 5 -24 32
-34 61 -9 29 -36 97 -59 150 l-43 97 183 303 183 303 -295 296 -295 297 -304
-183 -304 -182 -124 53 c-68 29 -136 56 -150 60 -15 3 -30 14 -35 23 -5 9 -45
168 -91 354 l-82 337 -418 0 -418 0 -82 -337z m763 -290 l78 -321 36 -7 c107
-20 325 -106 444 -175 37 -22 73 -40 79 -40 7 0 136 75 288 166 l276 165 128
-129 129 -128 -165 -276 c-91 -152 -166 -281 -166 -287 0 -7 18 -43 39 -81 75
-131 156 -337 176 -443 l7 -35 321 -79 322 -78 0 -185 0 -185 -320 -78 -320
-78 -27 -97 c-30 -112 -98 -275 -157 -379 -23 -40 -41 -77 -41 -84 0 -6 75
-135 166 -287 l165 -276 -129 -128 -128 -129 -276 165 c-152 91 -281 166 -287
166 -7 0 -46 -20 -89 -44 -128 -72 -329 -151 -435 -171 l-36 -7 -78 -321 -79
-322 -184 0 -184 0 -79 322 -78 321 -36 7 c-101 19 -317 104 -442 175 -39 22
-75 40 -82 40 -6 0 -135 -75 -287 -166 l-276 -165 -128 129 -129 128 165 276
c91 152 166 281 166 287 0 7 -20 46 -44 89 -72 128 -151 329 -171 435 l-7 36
-322 79 -321 78 0 184 0 184 321 78 322 79 7 36 c20 107 106 325 175 444 22
37 40 73 40 79 0 7 -75 136 -166 288 l-165 276 129 128 128 129 276 -165 c152
-91 281 -166 287 -166 7 0 43 18 82 40 125 71 341 156 442 175 l36 7 77 316
c42 175 79 320 81 325 2 4 86 6 186 5 l181 -3 79 -322z"/>
<path d="M2420 3904 c-322 -40 -591 -171 -815 -398 -199 -201 -313 -415 -372
-696 -24 -118 -24 -382 0 -500 59 -281 174 -496 372 -696 201 -203 421 -322
705 -381 117 -24 380 -24 502 0 270 54 494 174 694 372 202 199 322 421 381
705 24 118 24 382 0 500 -39 185 -110 356 -212 510 -63 95 -258 291 -351 352
-161 107 -335 180 -506 213 -81 16 -328 28 -398 19z m380 -322 c198 -52 365
-146 501 -281 135 -135 226 -297 282 -501 29 -109 29 -371 0 -480 -56 -204
-147 -366 -282 -501 -135 -135 -297 -226 -501 -282 -109 -29 -371 -29 -480 0
-204 56 -366 147 -501 282 -386 387 -411 1000 -57 1421 153 182 404 323 638
359 98 15 311 6 400 -17z"/>
<path d="M2405 3293 c-343 -73 -595 -384 -595 -733 0 -351 255 -662 602 -734
246 -51 499 26 677 207 138 140 205 289 218 487 27 425 -325 794 -754 789 -43
0 -109 -7 -148 -16z m247 -294 c87 -18 158 -58 223 -123 258 -259 118 -696
-244 -758 -141 -24 -281 22 -386 127 -178 177 -178 454 -1 630 111 111 258
155 408 124z"/>
</g>
</svg>
